<svg xmlns="http://www.w3.org/2000/svg" viewBox="0 0 628.9 456.33"><defs><style>.cls-1{fill:#feffeb;}.cls-2{fill:#ffe8d2;}.cls-3{fill:#ffbabc;}.cls-4{fill:#5f4c56;}.cls-5{fill:#e9c6b7;}.cls-6{fill:#ff7f83;}.cls-7{fill:#94003a;}.cls-8{fill:none;stroke:#240001;stroke-miterlimit:10;}.cls-9{fill:#fff;}.cls-10{fill:#ff7256;}.cls-11{fill:#240001;}.cls-12{fill:#e3feff;}.cls-13{fill:#0598b4;}.cls-14{fill:#b1ddc6;}.cls-15{fill:#165530;}</style></defs><title>Asset 1</title><g id="Layer_2" data-name="Layer 2"><g id="Layer_1-2" data-name="Layer 1"><polygon class="cls-1" points="70.3 330 65.7 333.3 59.6 340.2 33.7 372.6 10.2 405.6 6 422.6 8.9 436.9 17.4 445.4 33.1 453.4 35.5 455.8 88.8 455.5 59.3 424.3 39.4 410.7 79.3 370.8 94.2 354.8 70.3 330"/><polygon class="cls-1" points="445.6 441.4 452.2 455.7 452.6 455.9 509.1 455.9 490.5 414.5 445.6 441.4"/><polygon class="cls-1" points="268.5 226.9 228.2 237.6 226.4 279.1 243.4 356.7 276.9 377.5 312.7 338.1 307.1 312.9 324.4 262.8 298.7 209.5 268.5 226.9"/><polygon class="cls-1" points="249.5 23.5 220.7 61.3 210.3 93.7 212.5 103.6 216.3 130.2 213 129.5 209.1 138 205.1 149.8 204.7 155.1 203.7 163.8 204.8 169.6 209.4 175.1 213.1 177 213.5 181.4 212.4 187 214.9 190.8 219 199.6 220.1 208.8 222.5 219.3 225.3 226.4 228.5 232.8 234.4 233.6 251.9 223.8 258.7 207.9 275.5 136.6 261.4 88.8 251.9 74.3 249.5 23.5"/><path class="cls-2" d="M488.6,424.6h0c7.2,7.7,11.8,24.3,11.8,27.2V456h36.3l-16.4-41.8-3.3-4.5Z"/><path class="cls-3" d="M453,455.7s6.4-6.4,11-8,8.4-8.5,12-8.7,14.3-9.2,14.3-9.2,5.4-6.4,10.2-6.4,11-5.1,11-5.1h10.8l-2.9-7.6H514l-15,9.1-3.1-.3-2.7,1.6-5.6,3.3-11.1,7.2-10.6,6.2-8.5,5.7-2.9,3.1-3.5,3.6-1.4.8,2.1,3.8-.4.5v.5l1.7-.1-.1-.1Z"/><path class="cls-4" d="M224.5,224.5l-7.1,38.4,9.4,56.9L258,371.3l17.6,11.5,32.5-27.9L339.5,319l14.9-41,12-16.9,5.2-13.9h8.6l7.2,3.9,29.2,11.2,17.9,12.2,11.1,3.6,12,7.7h2.7l3.1,2.3.8,3.6.6,2.7,4.5,6.8,1.8,1.5,4,6.3,8.1,12.5,13.6,22.2,4.8,9.6,9.9,20.1L523.2,394l5,8.6.8,1.7-6.6,4-12,3.6-33.8,19.7-18,11.6-3.4,2.2-5.7.8L445,450l-5,3.7-3.8,2.3-9.1-.2h-8.3L407,456H154.1l-1-2.1-6.3-14.5-2.6-6.1-1.7-5.5-.6-11.4-.2-7.5-1-11.3-7.6-5.8-4.2-1-2.2,3.2-18.4-12.2-6.5-3.8L89.5,365.9l-12.1-11-5.1-5.3-8.8-13.8-1.9-3.4v-2l5.1-5.9,9.9-10.8,17.7-20.1,14.3-17.4,25.7-26.1,4.5-4.1,12-7.4,6.1-3.5,3.4-1.3,15.4-4.5,6.8-2,3.9-.4h19.8l3.3-.3,8.6-1.5,6.4-.6"/><path class="cls-2" d="M229.2,45.5s6.3,3.8,8.3,9-.7,14.8-.7,14.8L236,80.5v7.1s-1.6,5,0,8.9,3.6,10.8,3.6,10.8l-2.5,11.5-3.3,6.4,16.6,4.4-2.1,13.1-3.2-2.7h-4.4l-4.8-3.4h-1.8l.2,6.6s-.1,1.4,2.6,2.3,9,2.4,9,2.4l4.5,1.1s1,4.1,0,6.6-2.6,6.9-4.5,11.4-1.2,12.3,1.1,16.2c.8,1.4.8,3,1.7,4.3s3.2,3.5,3.7,5.7,2.5,18.9,2.5,18.9l-1.7,9.4-1.2,2.3-.8-7.2-8.4-14.8-9.8,5.4-9,1.2-5.2-.7s3.5,3.7,5.2,4.5a18,18,0,0,0,8,.8l6.4-1.1h0c1.1,2.1,1.4,3.1,1.9,10a16.72,16.72,0,0,1-.6,6.3,9.54,9.54,0,0,1-3.6,3.3c-2.8,1.8-6.7,0-6.7,0l-3.2-1.6,5.3,4.5,8.2,1.6,12.3.2,16.8-1.9,10.1-2,2.2-38.2,2.1-38.7L277.9,123,250.8,41.8l-21.6,3.7"/><path class="cls-2" d="M273.2,231.6s8.9,13.8,6.8,21.8c-1.5,5.6-3.7,20.9-4.9,29.4a42.72,42.72,0,0,0-.1,11.3c1,7.9,2.5,22.3.5,28-2.7,8.1-24.5,36.7-24.5,36.7s13.8,13.5,23.2,16.6c4.1,1.3,39.3-29.8,39.3-29.8l25.9-36.5,22-41.3-17.9-31-15.9-15.6-32.4-4.4Z"/><path class="cls-2" d="M72.3,349.6,22.6,405.4s3.3,11.5,11.6,18.1S63.3,439,63.3,439l8.8,7.1,4.3,5.6,1.8,4H98.8L68.6,427.8l-8.7-20.6,8.7-26.8,8-17.8,2.9-5.8-7.2-7.2"/><path class="cls-3" d="M76.5,355.7s-5.4,6.4-8.4,10.7-19.6,23.2-19.6,23.2a69.48,69.48,0,0,0-9.1,7.1c-2.8,2.7-10.6,9.2-10.6,9.2l4.8,6.4a25.28,25.28,0,0,0,6.6,8.3c4.4,3.5,16.6,10.9,16.6,10.9s12.3,7,13.6,7.5,10.5,10.6,10.5,10.6l3.1,5.3,17,1.1L84,440.8,72.5,419.9l17.2-15.8L105.6,385l2.7-3.2-5.9-3.3-5.5-5.3L93.8,370,85,361.9l-5.6-5.2-2-1.9Z"/><path class="cls-2" d="M39.4,455.9s-13.6-12.7-18.3-15.7a99.34,99.34,0,0,1-10.8-8.6,4.47,4.47,0,0,1-3-4.8c.5-3.6,2.5-12.5,2.5-12.5l.4-8.7L6,413.1,1.2,425.9l-.3,2.6-.2,1.7.6,6.2.5,4.2,1.1,2.5,4.2,6.4,5,6,.2.4Z"/><path class="cls-5" d="M211.3,173.3a1.48,1.48,0,0,0,0,1.3c.3.5,3.4,1.9,3.4,1.9a13.71,13.71,0,0,1,.8,3.5v9a3.51,3.51,0,0,0,.6-1.4c0-.4.1-2.4,0-3.5s0-3.5,0-3.5V176a10.91,10.91,0,0,0,1.1.6l1.7.5a1.41,1.41,0,0,1,1.1,1c.2,1.2.3,2.4.4,3.6a12.51,12.51,0,0,1-.7,4.3c-.4.5-2.3,5-2.3,5l3,.2,2.8-11.3-4.5-7.8-5.7-1.7-1.8,2.8"/><path class="cls-5" d="M225.9,109.6a2.29,2.29,0,0,0-.9,2.5,38.4,38.4,0,0,0,2.9,5.6l1.4,6.6.2,4,4.4-4.8.5-7.5,3.2-5.2-2.4-.9-3.9-1.8-3.3-1.2Z"/><path class="cls-2" d="M210.3,93.7s4.7,5.6,5.1,7.4l1.5,8,1.1,3,.2,4.7-4.9-4.3-1.7-7.9-1.7-3.7-.4-4.5.9-2.7"/><path class="cls-2" d="M209.6,169.4s-2.6.8-2.2-2.6,2.7-10.4,3.1-11.6l.2-.3,2.2-3.2,4.3-5.7h.1c.4-.7,5.7-9.2,5.7-9.9.5-2.2,1.1-4.3,1.8-6.4h0c.1-.7,1.3-6.9.9-9.6a60.74,60.74,0,0,0-1.4-6.3,1.35,1.35,0,0,1,1-1.6,1.13,1.13,0,0,1,1.1.3h-.1a35.23,35.23,0,0,1,1.5,4.2,2.09,2.09,0,0,0,.4.6l5,4.3a1.24,1.24,0,0,1,.4,1.4l-14.7,40.4a1.79,1.79,0,0,1-.5.7l-8.9,5.5"/><path class="cls-3" d="M239.3,235.7s-7,16-6.6,22.7-3.6,35.9,0,45.2,13.9,33.6,14.1,40.3,12.9,23.5,16.7,24.4,10.7,7.3,10.7,7.3,22.3-15.9,24.5-18.7S323,330.1,323,330.1l8.1-14,11.1-25,8.8-14.9,5.5-6.8,10.8,8.7-10.7,27.8L337,334.6l-27.2,26.2-20.1,13.8-14.1,8.2-14.9-8.1L247.2,363l-10.1-16.5L223,309.8l-2.5-23.2,1.8-23,.7-23.4,1.5-7.9L227,230s-.4.4,1.6,2a33.37,33.37,0,0,0,6.2,3.3l4.6.4"/><path class="cls-3" d="M213,129.6a7.24,7.24,0,0,0,1.1,1.9,3.71,3.71,0,0,1,1.3,1.7,2.07,2.07,0,0,0,2.1.7l1.6-1.2,1.7-1,.4-4.7a4.2,4.2,0,0,0-1.1-3.2l-.5-.6.4,6.5-1.5.4h-3l-1-.6-.2-.3h-.8l-.4.5"/><path class="cls-6" d="M215.1,126.3a5.15,5.15,0,0,0,.9,2,4.42,4.42,0,0,0,2,.2l1,.3.6.2c-.2-1.3-.4-2.6-.7-3.9a11.7,11.7,0,0,1-.5-2l-.3-1.5-.4-1.2a2.18,2.18,0,0,0-.7-.9l-1.4-.3-.6-.4-.9-1.2,2,.7,2.4,2.1,1.1,2.6.4,2.8v3.7l-2.4.5-3.1-.8-.2-1.6Z"/><path class="cls-3" d="M215.4,118.9a2.75,2.75,0,0,1,1,1.6c0,.8.2,5,.2,5a2.82,2.82,0,0,1-.4,1.5l-1,1.3-1.1-.5v-9.2Z"/><path class="cls-3" d="M214,116.9l2.7,1.8,2.2,2.6,1.1,3.9.9-.9-1.6-4.8-1-2.1-.3-.5c-.4-.6-1.6-2.2-2-2.7s-2.3-2-2.7-1.8,0,4.1,0,4.1Z"/><path class="cls-3" d="M238.9,111.1s-2.1,9.7-.3,10.3,6.7,3,6.7,3l6.7,4.8v4.1l-8.4-1.6-4.2-2.2h-2.3l-1.8,1.1,1,.4.8.9v5l-1.6,6.6-2.8-5.2Z"/><path class="cls-7" d="M448,447.7l8.1-5.9,17.7-11.6,6.4-2.5,17-12.4,5.4-.2,2-1.5,8.8-5.5h5.5l2.6,7.4a63,63,0,0,0-7.2-2.8c-2.8-.9-3.6-.6-5,1.6s-8.7,5.5-10.2,5.4-3.6,2.4-4.4,2.9-7.7,3.5-10.4,6.1a37.82,37.82,0,0,1-10,7.3c-4.3,2-6.3,4.8-12.8,8.7a28.72,28.72,0,0,0-9.8,10.1l-2.9-6.7"/><path class="cls-8" d="M450.9,455.9"/><polygon class="cls-9" points="239.3 131.1 237.8 136.1 238.5 138.4 243.2 140 248 139.4 249.5 136.6 248.8 134.1 239.3 129.3 239.3 131.1"/><line class="cls-8" x1="451.6" y1="455.7" x2="448" y2="447.7"/><path class="cls-7" d="M30.4,405.4l12.1,1h.6l12.5,3.2.9.3,13.2,7.4a3.63,3.63,0,0,0,2.5.4l4.2-1a3.87,3.87,0,0,0,1.9-1.2l4.9-6.1.4-.4,12.2-11.2.2-.2,6.8-7.2.6-.9,2.2-4.6a4,4,0,0,0,.2-2.4l-.2-.9a3.59,3.59,0,0,0-1.5-2.1h0a3.44,3.44,0,0,0-3.4-.2l-2.4,1.2-.5.2c-.5.1-1.9.7-4.4,3.1s-5.6,5-8.3,7.8l-.6.8a25.81,25.81,0,0,1-7,8.4c-4.9,3.8-9.3,3.8-9.3,3.8l-4,.4a3.21,3.21,0,0,1-1.7-.2l-2.1-.8-.6-.2-7.9-1.4h-.7l-10.4.6h-.6L36,404Z"/><path d="M241.5,132.8a9.35,9.35,0,0,1-.4,3.3,6.53,6.53,0,0,1-1.3,1.6l-1.7.4v-9l3,1.6"/><path class="cls-10" d="M216.6,193.8"/><polyline class="cls-10" points="242.6 198.4 236.7 197.7 229.2 195.8 224.5 192.9 219.9 191.5 216 191.3 213.1 188.9 215.3 192.4 216.6 193.8 215.5 197 215.8 202.2 217.3 205 222.3 207.1 229.4 205.5 237 202.4 242.6 199.5 244.2 198.9 242.6 198.4"/><polyline class="cls-9" points="213.9 117.7 217.5 118.9 219.5 123.1 219.4 129.1 215.9 129.1 214.2 126.7 213.9 117.7"/><polyline class="cls-11" points="213.6 119.9 215.9 120.5 213.3 116.9 212.5 118.2 213.6 119.9"/><path class="cls-8" d="M213.3,113.7s.2-.2,1,.9,1.9,2.3,1.9,2.3l1.3,1.5"/><path d="M214.1,121l-.4,5.7,1.5.3a2.73,2.73,0,0,0,1.5-1.8v-2.9a4.69,4.69,0,0,0-.9-2.2l-3.1-3.2v2.7l1.1.5"/><path class="cls-3" d="M278.6,232.5c2.7,5.9,11.3,16.1,9.3,25.4s-6.6,30.4-6.6,30.4l-2.7,17.3a43.54,43.54,0,0,0,7.4-10.7c2.5-5.8,11.4-16.9,11.4-16.9a111.51,111.51,0,0,0,3.4-10.8c2.1-7.6,6.6-18.3,9-16.1s-4.3,26.9-4.3,26.9l-3.4,16.9s-5.2,10.3-3,15.4,20.8-8.3,22.5-15.4,12-31.1,12-31.1l4.5-15.2s5.6-4.4,4.9,2.5-4.9,23.3-4.9,23.3l-4.5,7.2s13.3-10.5,20.9-3.5,9.6,13.5,9.6,13.5l11.6-23.2,4.5-10-6.3-7.3-8.9-2-9.7-10-4.3-12,1.7-18.4L351,195.3l-13-14.1-59.4,51.3"/><path class="cls-5" d="M237,112.4l-2.4,1.5a1.79,1.79,0,0,0-.5.7l-1.2,4.5a1.11,1.11,0,0,1-1.38.74l-.12,0a1.27,1.27,0,0,1-.8-.8c-.5-2.3-1.2-4.7-2.2-5.3l-1.7-1c-.8-.5,1.6,10.9,1.7,11.6h0a35,35,0,0,0-1.4,4.6h0l-1.2,11.3v.4c-.8,1.6-6.7,12.4-7.6,13.2l-.9.6a8.45,8.45,0,0,0-3.7,4,2.33,2.33,0,0,0,0,2l1.7,3.3a1.53,1.53,0,0,0,2,.73l.06,0c1.9-.9,4.5-3.2,5.9-3l4.3.2c-1.6,5.8,2.5-6.2,2.7-6.7l4.7-15.8h0l3.5-16.3v-.2l.5-8.1v-.3l-.2-1.2a1.11,1.11,0,0,0-1.38-.74l-.12,0A.37.37,0,0,0,237,112.4Z"/><path class="cls-5" d="M236.8,45.4s3-2,8.4,0,7.9,4.4,7.7,9.5,1.9,12.2.5,19.4c-.9,4.8-2.1,8.4-2.9,11.8-.4,1.8-2.1,3.1-1.5,4.9h.1l1.1,2.5a.6.6,0,0,1,.1.4l.5,6.7a.91.91,0,0,0,.3.7l2.9,3.6c.1.2.3.4.3.6l.6,3.8h0c0,.7.5,7.5,2.8,10.5a11.26,11.26,0,0,1,2.1,3.5,1.24,1.24,0,0,1-.4,1.4h0a1.42,1.42,0,0,0,.1,2l.1.1,6.7,4.5a1.42,1.42,0,0,1,.5,1.7l-2,4.5a1.35,1.35,0,0,1-1.79.66l-.11-.06a1.38,1.38,0,0,1-.4-.3l-1.8-2a1.23,1.23,0,0,0-1-.5l-9.5-3.4s4.7,2.4,4.7,5.8c0,1.7-10.8,0-9,1.7s4.3,3.2,2,6.5l7.9-1.1h.2a27.2,27.2,0,0,1,12.7,11c5.1,8.9,8.3,17.8,11.4,22.2s-3.5,26.3-3.5,26.3c-.2,3.6-5.7,9.6-6.9,10.9-.1.2-.3.4-.3.6-.5,1.7-3,9.7-8.1,12.5L248,235.9l28.4-3.7,2-.4,8.1-4.4h.1l9.6-2.7h.1l14.4-5.2h.1l13.1-6.5h.1l4.6-3h.1l2-1.5.4-.5,15-31.2v-.3l9.2-46.3a1.23,1.23,0,0,0-.2-1l-4-6.3-.2-.4L334.4,60.1a1.27,1.27,0,0,0-.7-.9L303.8,43.5h-.2L288.5,31.2,288,31l-21.6-6.3h-.7l-14.4,3.2-.6.3L242.5,36l-.2.3-5.5,9.1"/><path class="cls-7" d="M228.3,233.5a68.75,68.75,0,0,0-2.8,16.2c-.2,8-1,19.8-1,19.8s-2.8,18-1.5,24.3l2.5,12,8,21.3,5.1,10.1s6.5,21.9,10.9,25.8,19.2,15,19.2,15l7,2.2,15-7.7s8.9-5.5,13-10.1,15.2-10.1,18.6-15.2,15-17.1,15-17.1l13.9-18.6,4.3-14.9,7.4-17.1,3.7-18.2,5-6.4,8.8,3.6-17.5,40.6-7.6,14.5-7.9,10.7-10.3,10.1-5.3,9-9.1,9.7L299,373l-15.5,8.2-9.7,5.2-7.3-3.4-19.9-17.9-12.9-15.9L220,305.8l-2.5-16.1V242.2l.5-10.6,5.1-4,1.5-.7h1.1l3,5Z"/><path class="cls-7" d="M238.4,141.9a6.92,6.92,0,0,0,2.1,3.7c1.7,1.2,6.7.9,8.7,0a6.32,6.32,0,0,0,2.8-2.8l-2.8-1.4-1.7-1.2,4.8.2,10.3,1.6,3.2,1.3-6.9.9-3.1.3a8.92,8.92,0,0,1-3.7,2,47.76,47.76,0,0,1-7.6.8s-3.2-.1-3.9-.7S238.4,141.9,238.4,141.9Z"/><polygon class="cls-5" points="248 134 248.6 136.8 246.8 139.7 254.1 140.5 257 138.4 255.1 136.8 248 134"/><path class="cls-7" d="M243.2,126.7s3,2,1.9,2.7l-2.6,1.6,13.3,5.8,8.8,5.9,1.2.5s-.7-2.9-2.5-3.8-20.1-12.7-20.1-12.7"/><path class="cls-7" d="M326.5,213.1c.8,4.8,4.4,3.5,7.3,1.4a1.25,1.25,0,0,1,1.73.37l.07.13a1.18,1.18,0,0,1,.1,1l-.2.4-3,6.2-2.1,4.3h0l-8.8,23.7a2.36,2.36,0,0,0,1.51,3l.09,0a2.33,2.33,0,0,0,2.4-.6l5.9-6.7a13.31,13.31,0,0,0,2.7-4.6c2-5.8,6.8-19.5,9.2-20.6a10.71,10.71,0,0,0,2.2-1.5,1.27,1.27,0,0,1,1.79.18v0a1.69,1.69,0,0,1,.3,1l-.5,2.6v.4l2.5,19.1a1.41,1.41,0,0,0,1,1.1c1.4.3,3.9,1.2,3.6,3.1s-4.3,14-4.6,14.8h0c-.3.6-3.2,7.2-5.2,7.3s10.8-2.2,12.1-7.2,6.1-3.8,8-3.5a1.37,1.37,0,0,1,1,.8l.5,1.2a1.19,1.19,0,0,0,1.5.7h.1a2.11,2.11,0,0,1,1.7.6,23.73,23.73,0,0,1,4.8,4.7,1.27,1.27,0,0,0,1.8,0h0l.3-.3,3.5-7.8a.9.9,0,0,0,.1-.5v-1.7l-.6-3.7a1.61,1.61,0,0,0-.4-.7l-5-4.4a1.14,1.14,0,0,0-.8-.3h-3.8a1.14,1.14,0,0,1-.8-.3l-7.5-6.6-.3-.3-3.1-5.7v-.3l-1.5-6.8v-.3l-.4-10.2v-.2a27.81,27.81,0,0,1-.5-5.2c.2-.9,3.1-11.4,3.1-11.4l2.4-7.3a1.1,1.1,0,0,0,0-.8L357.1,180a1.31,1.31,0,0,1,.3-1.2l9.1-10.2a.91.91,0,0,0,.3-.7l1.9-14.8a1.27,1.27,0,0,0-.1-.6l-3.3-8.6a1.09,1.09,0,0,0-.8-.8l-11.2-3.2h-6.6l-.8.3-4.1,3.1-.6.2-3.6.4h-.5l-5.4,2.9-.3.2-1,.9h0a1.27,1.27,0,0,1-1.79-.18v0a1.69,1.69,0,0,1-.3-1l.7-3.1a1.34,1.34,0,0,0-1.1-1.5,1.19,1.19,0,0,0-1.1.4l-3.3,4a1.28,1.28,0,0,0-.2,1.2l4.1,12.9.2.4c.6.7,2.3,3.4-.2,9.7a101.26,101.26,0,0,0-4.2,13.2L316.3,214a2.59,2.59,0,0,1-1.1,1.4c-3.9,1.6-24.4,9.9-34.8,14.8A1.3,1.3,0,0,0,280,232h0a1.1,1.1,0,0,0,1,.6l23.7-1a13.91,13.91,0,0,0,11.1-6.4l8.2-12.9a1.31,1.31,0,1,1,2.5.8h0Z"/><path class="cls-3" d="M333.1,157.5c-.2,1.5-1.4,12.1-1.4,12.1l-2.9,7.3-1.2,5.8.3,3.5,4.8,2.5,5.1,4.1,5.1-1.6L351,181l7.7-8.5s5.4-6.4,5.9-7.9.3-8.1.3-8.1l-7.4-10.3-7.1-1.6s-3.4-1-5.1,0-8.4,5.8-8.4,5.8a20.34,20.34,0,0,1-3.8,3.3C331.8,154.3,333.1,157.5,333.1,157.5Z"/><path class="cls-5" d="M222.1,159.5c-.1,0-.5-.1-4.1,1l-1.9,1.9c-.3,1-1.3,2-.3,2.3a7.44,7.44,0,0,1,3.1,2.1c3.5,3.1,7.4,1.1,7.5,4.9,0,1.4-1,3.6-.3,5.6s0,.4.7.4l.6.6c1.2-.2,2.3-.4,3.5-.7a8.44,8.44,0,0,0,2.4-7.2c-.7-4.3-1-4.8-4.7-9.5l-1.8-.9-1.7-.5Z"/><polygon class="cls-12" points="333.3 196.6 337.7 190.5 339 191.5 339.6 195.2 339.6 201.1 338.9 204.1 336.7 207.2 332.2 208.4 330 208.4 327.2 207.2 333.3 196.6"/><path class="cls-7" d="M220.7,61.4l7.1-9.2s-.7-2.9,4.1-4.2,12.5-4.4,12.5-4.4l2.4-1.9s-2.4-2.5,0-2.1,10.8,9.6,10.8,9.6l6.9,8.4s6.5,6.5,6.5,10a79.34,79.34,0,0,0,1,9.8l.6,5.5-.2-7.1a11.37,11.37,0,0,1,1-3.6s-1.2,15.5,2.1,20.1l9.2,13,2.7,3.8,6.1,6.7,4.4,5.4,3.8,6.1v2.9l4,23.6v8.7l-.8,11.1.8,4.4,2.9,6.1s-2.1-2.5-1.5-11.1,1.5-17.5,1.5-17.5-1,13.3,0,15.3,5-37.1,5-37.1l-7.9-36.4L273.1,40.4,260.5,28.8,245,30.5l-8.1,1.9-6.3,6.5-2.8,2.9-2.9.6-4.2,19h0"/><path class="cls-2" d="M350,158s3.4-.1,4.4.7a10.19,10.19,0,0,1,2.1,3v6.6l-2.1,2.1-3,1.8-2.2,1,.9-1.8s.7.2,2.8-2,2-3.9,2-3.9l-.4-3.1-.6-1.9-1-1h-1.4l-1.6-1s-1.5-.7-.7-.7"/><path class="cls-2" d="M339.7,178.9s4.1,2.4,5.5,1.6l4.9-2.4,2.6-2.1,2.1-1.6,1.9-.3s.6-.3-.3,1a40.93,40.93,0,0,0-2.4,4.8l-2.9,2.7-2.2,1.5-1.8,3.5-1.7,2s-2.2,3.4-4,2.6-4.2-4.5-4.2-4.5l-4.4-2.1-2.3-3.1v-3.8l1.2-.5a3.93,3.93,0,0,1,2.4-.3l2.6.5Z"/><path class="cls-2" d="M357.3,145.3a1.55,1.55,0,0,0-1.7,1.3,1.41,1.41,0,0,0,.8,1.5c1.5,1.1,3,2.4,3.3,3.5a31.86,31.86,0,0,0,3.7,5.9,1.69,1.69,0,0,1,.3,1v1.4a1.27,1.27,0,0,1-.1.6l-2.9,7.3,3.7-4.6a2.7,2.7,0,0,0,.8-.7l.6-6c.1-.3-.3-.2.1-.3l-.7-3.3a3.84,3.84,0,0,0-1.5-2.4l-.2-.2-3.9-4.4-2.1-.7h-.2v.1Z"/><polygon class="cls-7" points="317.3 153.8 327.2 157.1 331.6 148.4 315 142.7 315 152.5 317.3 153.8"/><path class="cls-7" d="M309.8,174.3l3.8,9.8s-1.3-16.1,4.9-23.8l6.3-6.4-10.5-3.3-5.2-.7s3.4.6.7,11.8-1.3,18.2-1.3,18.2S307.9,175.4,309.8,174.3Z"/><path class="cls-13" d="M328.4,188.4l2.6-.8a1.68,1.68,0,0,1,1.9-.4c1.3.4,4.2,2,4.6,2.9a4.18,4.18,0,0,1,.4,1c.3,1-2.1,7.9-2.1,7.9l-3.5,4.8s-1.8,2.6-2.9,3.1a5.87,5.87,0,0,1-2.3.4l-1.7-1.2-2.1-5.4-.3-5.1a27.69,27.69,0,0,1,1.2-4.1l1.8-2.7Z"/><path class="cls-14" d="M327.6,205.9"/><polyline class="cls-15" points="327.4 184.1 326.3 198.3 329.4 198.3 330.5 184.1 327.4 184.1"/><path class="cls-8" d="M330.3,187.6a4.07,4.07,0,0,1,4,0,18.15,18.15,0,0,1,4.7,4,2.73,2.73,0,0,1,.6,1.2l.6,2.5a10.73,10.73,0,0,0,6.9-4.4c2.4-3.7,7.2-9.9,7.2-9.9l2.3-.9"/><path class="cls-8" d="M340.2,195.2V199a11.88,11.88,0,0,1-3.2,7.8c-1.2,1.2-5.5,1.8-7,1.7l-1.2-.4a18.52,18.52,0,0,1-3.3-2.1,17.83,17.83,0,0,1-2.1-5.4,43.61,43.61,0,0,1-.3-5.1c.2-.9,1.1-3.4,1.2-4.1a12.71,12.71,0,0,1,1.8-2.7l1.1-.6-.8,10.2h3.1l.9-10.8.2-3.5h-3.1l-.3,4.1"/><path class="cls-8" d="M324.1,213.1l-6.7,4.5-14.5,6.9c-1.5.8-19.7,7.1-19.7,7.1l-14.5,2.9-7.9.9-10.2,1.2s-13.3,0-18.2-2.1a11.11,11.11,0,0,1-6.2-6.2l-1.6-3.8"/><path class="cls-8" d="M255.8,242.2s3.8-2.5,4.1-3.6l-1.3-3"/><path class="cls-8" d="M216.8,112.1l1.3,4.7s2.6,5.9,3.1,9.8-1.3,10.2-1.3,10.2-6.3,11.5-7.1,12.7l-8.4,10.7"/><path class="cls-8" d="M63.4,335.7s8.3,14,10.9,16.3l20.5,18.8s7,8.2,10.5,9.5,11.7,7,11.7,7l9.9,6.6"/><path class="cls-8" d="M110.3,383.9"/><polyline class="cls-8" points="153.8 455.9 149.4 446.1 144.2 433.9 142.2 427.8 141.1 397.7"/><path class="cls-8" d="M438.3,454.9s31.6-23.6,35.5-24.6,14-7.5,16.7-9.5,5.2-5.9,7.5-5.6a17.71,17.71,0,0,0,4.6,0,86.78,86.78,0,0,1,10.8-7h6.2"/><path class="cls-7" d="M213.4,172.9l.8-1.5a3.75,3.75,0,0,1,2.1,0,6.06,6.06,0,0,1,2,1.9l.4,1.3.8,1.1v.5l-4.1-.5-2.6-1.4Z"/><path class="cls-11" d="M212.8,174.4l-1.4-1.1,1.3-1.1s3.2-.3,3.7,1.1a3.71,3.71,0,0,0,1.7,2,12.19,12.19,0,0,1-2.7,0Z"/><path class="cls-11" d="M218.1,164.9s-.4-3,.6-3.5a11.24,11.24,0,0,1,3.2-.4,8.47,8.47,0,0,1,3,1.5c.6.6,1.3,1.2,2,1.8l1.2,1,1.1.9.9,1.3a13.54,13.54,0,0,1,.9,4.2v2.6a3.36,3.36,0,0,1-.5,1.4c-.4.4-.9,1.5-1.5,1.7l-1.5.9,1.8-1.6.5-1.3s.5-2.3-.2-3.2-.2-3.1-1.4-4-3.6-2.9-3.6-2.9l-1.5-1.2-1.2-1.3a1,1,0,0,0-1.1-.6c-.1,0-.1,0-.2.1a8,8,0,0,0-1.7,1.5Z"/><path class="cls-8" d="M236.8,136.6l.7.2,1.1,1.7,3.1,1.5h4.4l6.2.2a32.51,32.51,0,0,1,4.2,1.1l6.1.6-6.8-5-4.7-1.8-4.6-1.9-3-1.6-1.1-.6-2.1-1.2a3,3,0,0,0-1-.4l-.9-.3-1.4.2a.55.55,0,0,0-.5.3,1.7,1.7,0,0,0-.1.7h-1.3a.82.82,0,0,1,1,.4s-1.5,1.2-.8.9a2,2,0,0,1,1.5,0v5Z"/><path class="cls-11" d="M255.8,136.9a1.65,1.65,0,0,1,0,1.9,5.34,5.34,0,0,1-2.5,1.7l3.2.9,6.1.6Z"/><path class="cls-11" d="M238.4,129.1v9.4l-1.7-1.9v-5h-1.5s2.3-1.5,1.1-1.4.1-.7.1-.7Z"/><path class="cls-8" d="M237,128.4s1-2.6,2.1-2.8,1.3-.7,2.7,0,4.6,2.8,4.6,2.8l3.8,2.4,5.5,3.6,3.5,2.4,2.3,1.6"/><polygon class="cls-11" points="239.6 136.5 238.5 133.8 238.5 135.8 239.6 136.5"/><path class="cls-11" d="M240.1,133.1l-1.6-1.3v-2.7l1.8.7-.6.6a2.73,2.73,0,0,1,.6,1.2c.1.6.3,1.6.3,1.6h-.5Z"/><path class="cls-8" d="M12.2,455.9c-2.8-1.7-10.5-14.3-10.5-14.3S.5,432.3.5,428.3s7-18.5,7-18.5l11.4-17.9,24.4-31.8,10.5-13,9.6-11.4a6.5,6.5,0,0,1-1.9-6.2l9.3-9.6,28-31.8c10.9-16.3,41.5-43.4,41.5-43.4L158,234.5l25.8-7.5h24.5l8.3-1.6,6.6-.8h1.4l-2.8-8.3-.7-5.3-1.3-3.1-3.6-4.2-.9-3.9.3-3.8,1.1-2.1-2.3-2.5a7,7,0,0,1-1.3-2.4c-.3-1.4-.3-.1-.3-1.4a21.08,21.08,0,0,1,.5-3.5,11.53,11.53,0,0,0,.3-2.6,40.11,40.11,0,0,0-.8-5l-2.7-.9a9.22,9.22,0,0,1-2.6-2.2c-1.1-1.4-2.3-2.4-2.6-3.6s-1-4.7-1-4.7a14.52,14.52,0,0,1,.2-3.6l.3-1.5v-5.1a26.31,26.31,0,0,1,.7-4.9,72.47,72.47,0,0,1,2.7-8.7c.8-1.7,3.1-7.8,3.1-7.8l2.1-3.9.8-1-2.6.9,3-2.2a7.65,7.65,0,0,0-3,.6l3.2-2.3.2-2.3-.5-2.3a1.39,1.39,0,0,1-.5-1c-.1-.8-3.9-.5-3.9-.5l2.7-1.3-3.5-1.4h4.4l-.3-5.1a6.66,6.66,0,0,0-.2-2.8c-.5-1.8-1.8-5.5-1.8-5.5l-1.1-2.2-.5-1.9s-.3-.2-.2-1.4.1-2.1.5-2.4.8-2.9.8-2.9l2.6-10.3s3-10.2,4-12.5l3.7-8.5s2.2-8,2.9-10.6a56.22,56.22,0,0,0,.9-5.7l.4-2.7,1.2-1.2c.8-.7.6-2.8,1.6-4.2s.8-2.6,1.7-3.2l4-3.3,2.3-1.2s2.9-8.8,3.2-8.6,6.3-2.5,6.3-2.5l7.1-6.3s13.9-3.2,9.5-1.5a66.1,66.1,0,0,0-9.5,5l23.2-9.9L285,3.3l11.4-.8H305A39.48,39.48,0,0,1,323.7,1c10.9,1.5,18.1,1.7,24.4,4.4s11.3,4.6,14.5,7.2,12.6,5.7,18.9,12.8a82.44,82.44,0,0,0,13.7,12l3.4-.6V35.1c0,1.7,4.4-.2,4.4-.2l2.7,2.1,9.5.6c4.8.2,6.3-.4,10.7,1.3s12.2,5.3,18.3,12,4.2,2.9,10.3,10.9a35.27,35.27,0,0,1,6.9,16s2.7,8.6,3.2,9.9-1.7-3.8-2.9-4.8,5,16,4.4,18.9l-4.4-10.5s4.3,21.9,4.4,22.5-4.2-11.6-4.2-11.6l3.4,20.4s-1.3-11.1-4-13c0,0,3.6,14.1,3.8,22.7s-1.9,36.2-1.9,36.2-1.1,14.5-2.9,18.9c0,0,1.9-15.5-1.9-24.2,0,0,1.9,20.4-.4,30.7,0,0,1.3-22.1-2.7-27.5,0,0,7.6,24.6-1.3,43.5,0,0-1.9,14.9-7.1,22.3,0,0-6.3,16.4-9.9,22.1s-10.3,14.5-10.3,14.5l7.6,5.3,6.7,1.5,4.4,2,6.7,3.5,5.3,4.2,2.9.5,3.1,2.3.8,3.6.6,2.7a99.34,99.34,0,0,1,8.2,11.1l7.2,11.6a134.34,134.34,0,0,1,9.5,15.3c3.6,7.1,9.9,14.7,10.7,17.7s8.6,18.5,8.6,18.5l10.5,19.3,8,13,1.6,3.4s-6.2,5.4-10.5,4.5l18.3,44.9"/><path class="cls-8" d="M359.4,196.4s-5.4,14.8-3.9,20.2c0,0-.5,9.5,1.8,16.9s11.5,13.6,11.5,13.6h8.6s-.9-.6,2.7,0,7.2,3.9,7.2,3.9"/><path class="cls-11" d="M374.1,329.4l-.6.6.6-.6m4.8-73.8-4.4,7.2c2.5-1.8,3.9-5.5,4.4-7.2m18.9-49.5-.7.6a1.87,1.87,0,0,0,.7-.6m63.7-26.8c-.8,5.4-1.4,9.2-1.1,9.2.1,0,.2-.3.5-.9.7-2,.8-5,.6-8.3m-2.4-5.9c.1,3.9.2,7.5.4,7.5s.1-.4.2-1.3a18,18,0,0,0-.6-6.2m5.8-56.9c.3,3,.4,5.2.6,5.2a1.45,1.45,0,0,0,.1-.6,12.9,12.9,0,0,0-.7-4.6m.9-6.6a13.75,13.75,0,0,0,.6,2.9v-.4a7.36,7.36,0,0,0-.6-2.5m-203-99.8a4.18,4.18,0,0,0-.9.3q1.2-.15.9-.3h0M410.6,64.9h0l2.6,3.3,1.7,5.9a12.21,12.21,0,0,1,1.9,6.1,85.25,85.25,0,0,0,.9,9.3s.2,2.3.2,4.8v.1c0,1.3-.1,2.6-.2,3.8a70.55,70.55,0,0,0-.7,8.5v6.1c-3.5-14.3-4.9-20-4.9-20l-4-13.1-2.6-5.6h0l.7-8.1,4.4-1.1M316.1.8a12.37,12.37,0,0,0-4,.4l-6.8,1.6h-8.6l-11.4.8-9.4,2.1-23.2,9.9s6.8-4.1,9.3-5.2c-2.5.5-9.3,1.2-9.3,1.7s-7.1,6.3-7.1,6.3-4.6,2.6-6,2.6c-.1,0-.3,0-.3-.1h-.1c-.7,0-3.1,8.6-3.1,8.6l-2.3,1.2a31.89,31.89,0,0,0-4,3.3,32.39,32.39,0,0,0-1.7,3.2,4.07,4.07,0,0,0-.8,2.4c-.1,1.4-1.9,3-1.9,3L223,53.4a24.7,24.7,0,0,0,7.2-7.9l8.5-2.3,4.2-3.5s-.8-3.4,2-3.4a10.4,10.4,0,0,1,4.5,1.5c8,4.2,19.1,20.4,19.1,20.4s8.9,11.1,11.2,17.3,8.5,15.4,10,18.8-1.2,9.6,2.3,15.8,11.1,14.2,14.2,18.1,1.9,9.6,3.5,14.6,20,9.6,20,9.6,5.8-2.7,6.9-3.5,2.7-3.5,7.3-4.6a18.5,18.5,0,0,1,4.3-.4,59.91,59.91,0,0,1,8.8.8,15,15,0,0,1,5.8,3.8c2.3,2.7,3.8,4.6,3.8,7.3s-.8,8.8-2.3,10.4-7.8,10.7-7.8,10.7l-3.4,6.3-10.3,23.9-8,13.8,7.3-8.4s-5.4,6.7-7.1,11.9-3.4,13.6-3.4,13.6,3.8-13.4,6.5-16.8,12.4-15.9,12.4-15.9l6.3-11.1s-4,7.5-4.2,14.2,0,10.9,0,10.9,2.1-19.7,6.7-23c1.5-1.1,2.4-1.5,2.9-1.5,1,0,.5,1.5.5,1.5s-4.2,2.5-4,5.9-2.1,9.6-2.1,9.6,4.6-7.1,4.4-9.8,1.3-2.7,1.3-2.7h.2c.7,0,3.2.3,4.1,4,1,4.4,3.7,8.2,2.9,12.6s-.6,7.9-2.9,11.1a62.82,62.82,0,0,1-5.9,6.7s7-5.7,9-10.1,3.2-6.9,2.1-11.7-2.9-11.5-4.4-12.6,7.7-1.7,10.1-4.8,9.6-4,13-8.4c0,0,9-5.2,10.5-7.5s4.8-6.9,4.8-6.9l3.6-5.2,1.3-2.3,3.1-5.4s-3.6,19.1-6.7,22.6c0,0-2.9,9.2-7.7,10.9,0,0,5.6-1.7,6.8-3.9-1,2.6-5.7,14.8-8.3,17.7l4.3-3.4a80.79,80.79,0,0,0-9,12.1c-3.4,5.9-9.2,17.4-9.6,28.1l-4.4,11.9a7.34,7.34,0,0,0-.2.8l4.8-7.9s2.7-8.6,4.4-14.4,10.5-15.5,10.5-15.5-6.3,16.1-7.3,18.6-4.6,17.6-4.6,17.6-5.7,9.4-6.5,14l-2.5,13.6,3.6-9.8s-4.4,13.8-5.4,19.5-.2,14.2-.2,14.2l-1.3,13s.6,5.9-.8,8.8c-.1.2-.2.3-.1.3s5.9-11.5,6.2-19.7c.2,3.9.2,10.7-1.2,14.3a20.72,20.72,0,0,1-4.4,7.1,53.68,53.68,0,0,0,5-5.7c3.8-4.8,8-11.4,7.6-16.5,0,0,2.1,9.4-1.9,13,0,0-8,8-7.5,8h0c.9-.4,18.2-16.1,20.1-19.1s10.9-13.2,10.9-13.2l10.1-12.4,3.8-5.6,5.1-8.9,10.3-14.5,9.9-22.1s7.2-13.2,7.1-22.3c0,0,3.8-9.7,4-16s2.2-8.4-2.7-27.5a22.36,22.36,0,0,1,3.2,6.8c-.1-4.7-.1-10-.1-10a116.29,116.29,0,0,1,2.5,15.9c1.2-8.4,3.1-20.5,3.5-28.2.7-13.3-.5-35.5-2.7-40.6a41.91,41.91,0,0,1,2.6,6,82.23,82.23,0,0,0-1.7-12.5,51,51,0,0,1,2.6,5.8c-.6-4.1-1.7-11.4-2.6-15.6,1.4,3.2,3.5,7.7,3.5,7.7s-3.4-16.9-4.3-18.7l2.8,4.6-3.2-9.9s-1.4-6.8-3.1-9.9a47.34,47.34,0,0,0-4.5-7.1c-1.4-1.7-7.4-8.4-8.9-9.2s-6.1-7.5-9.4-7.9l-5.3-3s-4.6-2.5-6-2.5h-.1a16.47,16.47,0,0,0-3.2-.6l-8.5-.2-6.8-.4-2.7-2.1a15.92,15.92,0,0,1-3.3.9H400c-.7,0-1.8,1.2-1.8,1.2l-2.5.4-4.2-3.2c-1-.8-5.3-4.6-6.3-5.6s-4.9-5.6-6-6.1-3.4-2.9-4.6-3.3L365,13.8l-2.8-1.9s-7.5-4.6-10.5-5.2l-5-2-6-1.5L323,1.1s-3.8-.3-6.9-.3"/><path class="cls-11" d="M313.3,169.4c-1.6-9.7-1.5,8.6-1.5,8.6l-1.1-32.9-.9-2.3,6.6,5.1s-1.5,11.8.5,17.5-3.6-4.3-3.6-4.3v8.3Z"/><path class="cls-11" d="M228.2,111.7h4.3l8.1,3.8,3.8,1.8,3.6.8,6.1,1.3,2.4,2h3.3l3.8,2.8h2a8.86,8.86,0,0,1-2.8-2.3,29.28,29.28,0,0,1-1.9-4l-1.4-1.3-2-.6c-1.5-.5-4.1-1.1-4.1-1.1s-2.4-.1-2.9-.8l-2-2-1.8-.2-3.6-1.2-2.6-.4-2.8-1.1-3.4-.9a24.69,24.69,0,0,1-2.9-1h-2.1a6.39,6.39,0,0,0-1.5,1.3A4.82,4.82,0,0,0,228.2,111.7Z"/><path class="cls-11" d="M209.8,101.3s.5-1.4,2,.1a22.05,22.05,0,0,1,3,4.5l2,3.3s-2.4-6.3-2.6-6.6-4.5-7-4.5-7l-.5,2.4.6,3.3"/><path class="cls-11" d="M341.5,160.4a4.52,4.52,0,0,1-1.3-3.5,12.51,12.51,0,0,1,.7-4.3l3.7,3.9a21.93,21.93,0,0,0,3.9,2.9c2.6,1.5,4.7,1.5,5.3,3.6s1.1,3.2,0,4.5-2.8,0-2.8,0l-3.6-2.1-1.3-2.6,3.2-1.1-3-1.2S342.6,162,341.5,160.4Z"/><path class="cls-9" d="M240.1,132.8a.47.47,0,0,0,.44.5h.06a.51.51,0,1,0,.5-.9.3.3,0,0,0-.4,0C240.4,132.4,240.1,132.6,240.1,132.8Z"/><path class="cls-11" d="M518.8,408.3l.6,2.4s1.3.8,3.5-.7a45.09,45.09,0,0,0,4.7-4s-.5-.9-3.2,0A55.43,55.43,0,0,0,518.8,408.3Z"/><path class="cls-11" d="M243.8,199s-13.3,1.3-17.8,0-9.4-5.2-9.4-5.2,6.1,3.2,7.8,3.6c0,0,.8.6,3.8.8l10.9.4Z"/><polygon class="cls-11" points="243.8 197.8 245.2 198.5 245.2 200 243.8 199 243.8 197.8"/><path class="cls-8" d="M214.1,127.3l.3,1.8.9,1c.3.3,3,0,3,0l1.5-.4V126a26.36,26.36,0,0,0-1.5-5.5c-.4-1.1-5.1-3.6-5.1-3.6l-.8,1.4.8-1.4-.8,1.4h0"/><polyline class="cls-11" points="214.3 125.5 214.2 126.7 214.1 127.2 211.1 127.8 214.3 125.5"/><polyline class="cls-11" points="213.8 128.5 214.1 127.2 211.1 129.4 213.8 128.5"/><path class="cls-11" d="M357.7,155.6s.4,8.8,0,10.5-1,3.5-1,3.5,2.8-3.8,3-4.9,1.1-1.5.8-3.5a25.42,25.42,0,0,0-1.4-4.7Z"/><path class="cls-11" d="M336.9,161.7s1,7,0,9.3-3.9,4.4-3.9,4.4-1.3.3-1.3,2.6.6,1.8.6,1.8a4.09,4.09,0,0,0,3.4-.6c1.3-1.2,3.8-2.2,3.8-3.2v-3.2l3.6,1.2s2.3,1,2.9,0a29.17,29.17,0,0,0,1.4-3.1,5,5,0,0,0-.9-2.9c-1-1.1.2-2.5-1.8-2.7s-5.8-2.7-5.8-2.7Z"/><path class="cls-11" d="M342.9,150.9a13.9,13.9,0,0,0,2.7,3.2c1.1.7,5.5,3,5.5,3a16,16,0,0,0,0-3.1c-.2-1.6,1.1-2.5-.5-3.1s-4.7,0-4.7,0Z"/><path class="cls-11" d="M226.1,228.3l-1.6-3.8a9.41,9.41,0,0,0-3.6,3.8h-2.6c-3.2-.1-1.3,30.3-1.3,30.3l-.5,17.4v13.2s1.6,17.4,3.4,24.5,6.1,27.1,12.7,36.4,25.7,29.2,25.7,29.2,5.5,3.4,8.4,5,4.5,2.6,4.5,2.6,10.8-2.1,12.9-4.2,18.7-11.1,18.7-11.1,9.2-6.3,11.9-10.5c0,0,12.9-12.4,17.1-17.7,0,0,8.4-9,12.7-15.3l10.8-14.5,7.4-14.8s3.4-5.3,6.3-10.8,7.9-15.8,7.9-15.8l4.7-12.1V253l-8-5.9s6.4,4.2,5.5,7.7-.9,6.1-3.5,13.5S364,291.5,364,291.5l-4,8.2a32.57,32.57,0,0,1-4.7,10.8c-4,6.1-10.7,14.5-10.7,14.5l-7.5,9.5-7.9,8.7-7.6,8.2-10,10.5-10.3,6.6-8.7,5.8-10.8,5.5s-6.9,6.6-9,4.5-7.4-4-11.9-7.6S244,361.1,244,361.1a66.39,66.39,0,0,1-9-12.7c-3.4-6.6-12.1-34.5-12.1-34.5s-5.5-21.1-4.5-33.2v-22l-.1-24.7s1-2.2,2.4-2.4,1.2-2,2.8-2.4A11.42,11.42,0,0,0,226.1,228.3Z"/><path class="cls-11" d="M371.3,376.7c-12.7,16.2-26.2,33.7-30.3,43.2a93.94,93.94,0,0,1-9.9,17.1s13.2-12.6,20.1-21.6,23.1-14.4,28-21.1,17.5-20.7,20.2-27.9,8.1-21.1,13-29.7,12.6-21.1,17.1-23.8c0,0-9.9,5.4-14.8,11.2s-8.5,9.9-8.5,9.9,2.2-12.1,4.9-16.6,6.3-11.6,6.3-11.6.4-1.9-6.3,6.7-12.6,14.8-14.8,21.6-7.8,17.1-14.7,26.1A97,97,0,0,0,371.3,376.7Z"/><path class="cls-11" d="M460.2,294.9c-11.2,13.9-15.7,25.6-15.7,25.6s-1.8,1.3-4.9,18.9-7.2,37.3-7.2,37.3-.9,6.7-2.7,22-7.2,36-7.2,36-4,18.7,0,21.3c0,0,1.8-24.4,4.5-28.5s6.7-35.1,6.7-35.1,1.1-19.2,2.8-23.1c0,0,3.8-19.6,5.2-22.8,0,0,2-19,4.4-22.9s10.6-22.9,12.3-24.5A6.44,6.44,0,0,0,460.2,294.9Z"/><path class="cls-11" d="M457.6,285.6c-6,6.1-12.8,16.5-18.9,27-10,17.2-18.1,34.8-18.1,34.8l-12.2,36.4L393,415.6s3.3-8.2-11.4,12.3c0,0,21.6-8.2,26.3-15.9s.5,15.9.5,15.9l12.2-35.3,4.2-25.1,1.5-19,5.6-15.9s3-10.8,8.4-15.4Z"/><path class="cls-11" d="M331.2,439.1c4.4,1.8,14.2,4.7,14.2,4.7l2,1.2-10-1.6s5.5,3.2,7.1,3.5a43.38,43.38,0,0,0,5.1,0l12.6,4.3s4.7,2.2,5.9,2.2,3.9-1.4,6.1-1.2,6.2.2,6.2.2,4.1-1,7.2-2,7.1-1.6,10.8-2.4,6.9-4.7,6.9-4.7l-2.2-1.4s1.8.9,1.1,1.4l-3.7,3.1-4.1.4-5.6,1.4s-3.4,1-5,1.3-6.5,1.9-8.4,1.5-6.3-.2-6.8.5a3.21,3.21,0,0,1-3.5.4c-1.5-.7-7.8-3.5-8.4-3.5s-6.9-2.7-6.9-2.7Z"/><path class="cls-11" d="M170.3,455.9A76.46,76.46,0,0,1,200.8,439l49.1-13.9L281,409.5s22.1-5.4,25.7-11.4S320.5,379,320.5,379l4.2-7.9s10.2-7.7,14.4-11.9,12-13.8,12-13.8-6.6,25.1-12,32.9-7.8,25.1-14.4,29.9S296,427.8,296,427.8s-9.6,7.5-14.4,15.3l-8.4,3-4.7-7.1-4.3,7.1-3.6,9.8-7.8-14-6,4.2-7.2,7.1-1.2,2.7Z"/><path class="cls-11" d="M157.9,234.5"/><path class="cls-11" d="M164.4,234.5s-3.9,3.3-6.5,12.5-4.8,34.6-4.8,34.6l-3.5,13.3s-4.1,24.8-5.8,29.1-4.4,16.1-4.4,16.1,3-7.1,4.9-8.7A95,95,0,0,0,144,354l2.2,17.3.3,10.2-.5,12,.5,8.7s0,12,.8,15,.8-9.5,5.7-9.3l4.1-26.9,3.8-19.1,2.2-9.8s4.1-5.4,4.4-10.3,0-14.4,0-14.4l-1.9-4.9a63.89,63.89,0,0,0,2-10.6c.4-5.2-2.3-36.2,0-36.5s-4.7-13.9-4.7-13.9l-.5-15.2Z"/><path class="cls-11" d="M178.7,234.5s6.8,13.8,6.5,22.3,0,35.1,0,35.1v18.8l-1.6,15.4s3.3,30.6,8.7,40.4c0,0,1.1-18.6,5.2-20.8l-3.3-48.3-.8-17.4V263.3l-.8-9.5c0-1.6-4.6-12-3.3-15.8l1.4-3.8s.5-4.1-5.7-1.9"/><path class="cls-11" d="M197.5,229.5s-2.2,1.4-1.6,9.3a102.72,102.72,0,0,0,3.3,17.4l3,4.1V231.6l2.2-3.3Z"/><path class="cls-11" d="M139.5,255.9l-1.6,7.6s.3-.8-1.6,6.8,0,19.1,0,19.1l1.2,7.1,2.1,6.8V279.6a22.74,22.74,0,0,0,1.6-7.3C141.1,268.7,139.5,255.9,139.5,255.9Z"/><path class="cls-11" d="M120.9,330s3.1,18.1,7.4,24.8,10,19.5,10,19.5l1.2,4.8v2.4l-1.2-28v-7.9l-1.7-3.9-7.7-2.1L127,334Z"/><path class="cls-11" d="M139.5,303.3v30.2l-1.2,12.1,1.2,17.2,1.6,25.9v9.1l-1.4,3-13.8-6.5,1.3-10.7,3,.8,5.2.5,1.4-3.5-3.3-4.5,1.9-4.5v-5.9l-1.9-27.7,3-6.1.5-6.6s-1.6,5-.3-4.3S139.5,303.3,139.5,303.3Z"/><path class="cls-11" d="M101,455.9s-16.4-13.6-17-15.2-10.5-17.3-10.5-17.3l-6-5.9-8.8-5.7-7.2-2.5-5.3-1.2-3.5-1.6s14,1.9,16.2,3.1,9,6,9,6l4,.2,3.2-.8,6.6-5.7L93,398.2l8-7.6,1.4-5.1,1-4.2,1.9-1.1,5,3.5-3.9,6.1-4.5,3.1L88.5,409.5l-7.6,6L77.6,418l-2.9,1.8L85,437.9Z"/><polygon class="cls-11" points="213.2 119.6 209.8 119.5 212.5 118.2 213.2 119.6"/><polygon class="cls-11" points="209 116.9 213.3 116.9 212.5 118.2 209 116.9"/><path class="cls-8" d="M216.1,203.6s3.7,3.3,5.4,3.5,6.3-.9,7.3-1.3l7.3-2.8,5.7-2.9,2-1.2a17.09,17.09,0,0,0-5-1c-1.8.2-5.7-.7-7.9-1.5a18,18,0,0,1-5.4-2.6c-1.4-1-5.7-2.3-5.7-2.3h-3.1c-1.8,0-4.1-3.9-4.1-3.9"/><path d="M396.1,37.3s4.6,3.5,4.6,5.7,3.5,10.5,2.5,12.9c0,0,1.2,9.4.8,10.4l.5-.7,1.6-.3,1.9-.4.9-.3s.5-11.9,0-15.7-3.1-11.7-3.1-11.7l-2.7-2.1-3.5.9-.9-.7-.4,1.7Z"/><path d="M417.8,66.3S435.4,90,434.4,102s-3.1,36.4-3.1,36.4,1.4,38.2,1.6,47.1-12.8,18.2-12.8,18.2-1.4,2.3-3.6,11.1c-3,12.2-23.8,45.1-23.8,45.1s6.2-19.7,7-25.8l4.6-17.3s7.4-12.8,7.4-17.3c0,0-14.5,19.5-17.1,19.5,0,0,4.8-10.6,8.2-13s6.9-14.7,6.9-14.7,2.3-4.7,2.5-8.1,2.3-13.6,2.3-13.6,3.1-40.3,2-46.7,1.2-15.5.9-18.8,1.1-26.4-1.5-31.8a18.44,18.44,0,0,0-7.2-7.7l-1.9-2.5Z"/><path d="M285.3,45.5S296.3,60,299,71.9s14.5,37.3,14.5,37.3l9.5,24.5,7.2,4.8s13.9,9.3,3.1-6-30.6-73.1-30.6-73.1Z"/><path d="M257.5,28.9s-9.6-3.6-15.1-.1c0,0,3.1-5.7,7.1-5.3s24.2,7.4,25.1,9.5,5,12.5,5,12.5-6.8-10.8-10.1-12.1S257.5,28.9,257.5,28.9Z"/><path d="M413.5,118.4s8.7,18.9,5.6,24.8-12.4,29.6-18.2,35.4-29.6,16.6-29.6,16.6,35.7-42.9,37.2-49.9,1.3-30.6-1.2-35.1-5-33.5-5-33.5Z"/><path d="M354.4,12.1c4.6,3.1,20.1,10.2,23.5,16.7s13.2,11.7,13.2,11.7l11,2.6s-18.9-9.2-18.2-11.7-13.7-12-13.7-12Z"/><path d="M365.8,27.6s4,1.4,7.8,3.1,6.2,3.1,6.5,4.3,23,8,23,8-18.9-1.4-20.6-3.4-2.5-1.7-7.3-4.3-13.4-7.5-15.6-6.5S365.8,27.6,365.8,27.6Z"/><path d="M403.6,47c-9.2,1.7-8.6,1.4-28.4,7.7l-9.5,3.7s11.6-2,14.4-3.4S403.6,47,403.6,47Z"/><path d="M368.2,41.8s13.3,4,16.5,3.7,16-2.5,16-2.5l-10,4s-8.8,1.7-9.6.9S368.2,41.8,368.2,41.8Z"/><path d="M405.1,52.8s-7.9-.5-11.6,2.6S381.1,70,381.1,70s-3.3,10.3-6.6,10.5-33.8,6.1-33.8,6.1,34.5.2,36.4-2.2,4.8-14.2,9.6-18,4.7-8.2,9.3-9.7A43.56,43.56,0,0,1,406.1,55Z"/><path d="M405.2,60.4s-5.3,6.3-6.2,13.2-4.2,22.5-6.1,24.6-8.2,19.5-8.2,19.5,11.1-16.5,11.9-20.6,3.3-20.9,3.3-20.9L406,65.7Z"/><path d="M302,22.3c12.5-1.2,18.6-4.3,18.6-4.3s3.9.5,8,1.3,8.3,1.8,8.9,3-6.7-1.2-9.1-.8-17.7-1.4-17.7-1.4Z"/><path d="M321.1,5.4c5.6-.6,15.9.4,16.5,1.7s9.7,5,9.7,5a40.52,40.52,0,0,1-9.7-2.4c-4.8-1.9-21.5-4.1-26.1-1.1Z"/><path d="M347.2,45.5c-6.7,1.8-25.9,1.5-25.9,1.5s12.1,1.3,17.9,1.1,18.5-4.3,18.5-4.3Z"/><path class="cls-7" d="M224.9,179a55.79,55.79,0,0,0-6.9-1.3,18,18,0,0,0,6.9,1.3c3.3-.2,2.5-.7,2.5-.7Z"/><path class="cls-7" d="M282.9,54c3.8,4.5,14.4,17.1,13.2,20.2Z"/><path class="cls-7" d="M261.1,35.3c4.7,3.7,14.5,17.5,14.5,17.5Z"/><path class="cls-7" d="M260.4,14c1.3-.1,9.7,2.8,12.3,6.1s7,12,7,12-7.6-11.7-9.2-12.6Z"/><path class="cls-7" d="M280.8,10.7c5.5-1.9,14.4-2.1,14.4-2.1s10-.4,11.8,1a51.31,51.31,0,0,0-9.6,0c-3.5.5-19.6,4.4-19.6,4.4s7.5-2.8,10.1-3.9S280.8,10.7,280.8,10.7Z"/><path class="cls-7" d="M316.4,5.1c4.1-1.1,12.9-2.4,12.9-2.4s9.8.9,10.8,2.5A35.74,35.74,0,0,0,330.9,4L312.5,5.3h3.8Z"/><path class="cls-7" d="M306.2,28.8a154.43,154.43,0,0,0,27.2,0l15.5-4.3s-3.4,5.6-9.4,5-26.9,2.8-26.9,2.8Z"/><path class="cls-3" d="M335.4,14c10.4,5.4,18.9,4,18.9,4l-11.5-1.9Z"/><path class="cls-3" d="M347.4,40c8.2-2.2,19.6-2,19.6-2s-15.9,2-20.2,3.1l-9.9.9Z"/><path class="cls-3" d="M327.7,73.2c4.5.9,12.7.8,12.7.8H346l-12,1.5Z"/><path class="cls-7" d="M331.7,67.3s22.4,4.9,29.8,0A116.23,116.23,0,0,0,375.4,56S370,67.6,361.5,68a116.48,116.48,0,0,1-17.7-.7Z"/><path class="cls-7" d="M345.5,100.4s27.9-1.8,30.7-7,5.5-10.8,5.5-10.8l-3.5,10.9-9.1,5.8Z"/><path class="cls-7" d="M398,103.8s-3.3,20.5-10.7,24-16,10.6-16,10.6l-6.8,4.7s17.5-6,20.1-10.7,13.3-20.3,13.3-20.3v-8.3Z"/><path d="M347.8,72.5s-13.3,3.2-18.8,1.3-16.3-7.5-16.3-7.5Z"/><path class="cls-7" d="M417.1,39a29.66,29.66,0,0,1,18.5,6.8c8.7,7.2,8.7,8.2,8.7,8.2l9.6,8.9s3.8,12,3.8,15.4-.8-11.1-4.3-14.2L440.5,52.7s-4.3-8.8-9.7-9.7A119.92,119.92,0,0,1,419,40l-6.2-1.5Z"/><path d="M419.7,50.7c4.7,1.5,18.9,5.9,21.3,11.4.4.9,8,26.9,8,26.9l-2.1,11.4s-1.8-22.3-4.7-27.1-.7-4.8-5-11.2S419.7,50.7,419.7,50.7Z"/><path d="M425,66.2s16.6,27.6,16.3,37.6-3.5,31.7-3.5,31.7l-3.5,17.1,5.8-13.2s5-26.2,5-28.3-3.5-19.5-3.5-19.5S432.4,74,430.4,70.4A7.69,7.69,0,0,0,425,66.2Z"/><path class="cls-7" d="M430,220c-2.6,4.6-16.6,57.6-26.1,62.2A56.15,56.15,0,0,0,388,294.1s3.4-3.4,9.9-9.3S414,266.5,414,266.5l5.4-19.8Z"/><path class="cls-7" d="M435.1,158s-2.2,16.5-5.1,21.9-9.9,23.9-9.9,23.9,15.3-27,15-29S435.1,158,435.1,158Z"/><path class="cls-7" d="M414.4,44s3.8-3,10.6,1.1S444.8,71,444.8,71s-11.9-21.4-14.6-23.9-13.1-5.3-13.1-5.3Z"/><path class="cls-7" d="M454,93.4s7.9,18.4,3.6,32.2l-1.3,14.5s5.2-17.9,5.2-20.4S454,93.4,454,93.4Z"/><path class="cls-9" d="M216.4,122.7a.47.47,0,0,0,.44.5h.06a.51.51,0,0,0,.5-.9.3.3,0,0,0-.4,0C216.7,122.3,216.4,122.5,216.4,122.7Z"/><path d="M580.32,453.26h-.06c-.24,0-.54-.54-.61-.88a5,5,0,0,1,.42-3.17c.58-1.24,1.15-2.47,1.75-3.7a3.7,3.7,0,0,1,.47-.61l.23.06c0,.61.1,1.21.13,1.82a9.52,9.52,0,0,1-1,5.45c-.11.18-.18.42-.34.52a2.22,2.22,0,0,1-1,.5M551.61,433h0c.36,0,.28.42.24.7s-.81.41-1.35.5h-.22a2.86,2.86,0,0,1-1-.21,18.5,18.5,0,0,1,2.14-1h.16M571,438l-.32-.24a12,12,0,0,1,1-1.78c.84-1,1.76-2,2.69-2.89.19-.2.56-.22.85-.33a2.74,2.74,0,0,1-.07,1,4.58,4.58,0,0,1-.91,1.31c-1.07,1-2.22,2-3.29,3m4.33-6.78a1.21,1.21,0,0,0-.61.18,14.19,14.19,0,0,0-2.33,1.63,9,9,0,0,0-3.37,5.92,1,1,0,0,1-.32.6,9.09,9.09,0,0,1-3.2,1.91,2.45,2.45,0,0,1-.66.1,1.79,1.79,0,0,1-1.72-1.24c-.29-.74-.74-1.08-1.22-1.08a1.84,1.84,0,0,0-1.08.44c-.2.16-.36.38-.56.53-.42.33-.87.64-1.41,1-.09-.47-.16-.81-.21-1.15a1.61,1.61,0,0,0-1.54-1.19,1.14,1.14,0,0,0-.42.07,7,7,0,0,0-2.79,1.81,7,7,0,0,1-.68.59c-.24-.38-.45-.67-.62-1a2.06,2.06,0,0,0-1.72-1.23h-.21a16.28,16.28,0,0,0-3.42.81c-1.82.65-3.6,1.48-5.42,2.16a.58.58,0,0,1-.21,0,.47.47,0,0,1-.41-.81,5.36,5.36,0,0,1,1.64-1.27,23.6,23.6,0,0,1,6.62-1.57c.52,0,1-.17,1.07-.79.05-.44-.52-.88-1.12-.93-.42,0-.83-.1-1.25-.13-.6,0-.57-.48-.27-.69a4.13,4.13,0,0,1,1.56-.58,26.4,26.4,0,0,0,2.86-.36c1.38-.4,1.27-1.15.85-2.45a1.44,1.44,0,0,0-1.37-.7,1.78,1.78,0,0,0-.56.09c-1,.35-2.06.74-3.09,1.11a1,1,0,0,0-.44.33,22.85,22.85,0,0,0-1.38,2,2.37,2.37,0,0,0-.35,1.37c.08.61-.15.8-.64.92a17.85,17.85,0,0,0-2.22.6c-1.3.52-2.65,1-3.43,2.32a2.89,2.89,0,0,0-.09,2.46,2,2,0,0,0,1.6.74,2.15,2.15,0,0,0,.74-.14c.47-.18,1-.34,1.42-.55,1.37-.63,2.69-1.35,4.09-1.88a16.46,16.46,0,0,1,3-.64h.14a.67.67,0,0,1,.65.62,10.15,10.15,0,0,0,.43,1.66c.21.53.36,1.21,1.07,1.35h.24a1,1,0,0,0,1-.74,5,5,0,0,1,1.81-2.8,9.54,9.54,0,0,1,.84-.46,8.92,8.92,0,0,1,.44.85,9.17,9.17,0,0,0,.56,1.52,1.38,1.38,0,0,0,1.17.63,1.19,1.19,0,0,0,1-.45c.36-.48.8-.9,1.15-1.39.19-.27.36-.38.52-.38s.35.16.52.44.19.27.27.41a2.74,2.74,0,0,0,2.51,1.29,3.32,3.32,0,0,0,2-.6,18.76,18.76,0,0,1,1.78-1.08.61.61,0,0,1,.3-.11c.14,0,.24.1.33.33a2.27,2.27,0,0,0,2.07,1.39,2.1,2.1,0,0,0,.78-.16,7.24,7.24,0,0,0,1.75-1.08,7.72,7.72,0,0,0,1-1.15,6.47,6.47,0,0,0,1,1.31,2,2,0,0,0,1.1.27,2.72,2.72,0,0,0,1.75-.53c.64-.64,1.17-1.37,1.75-2.06.14-.17.3-.33.54-.61a9.62,9.62,0,0,1,.55,1.15c.23.7.34,1.48.61,2.14a1.32,1.32,0,0,1-.22,1.48,19.32,19.32,0,0,0-3.57,7.53,5.18,5.18,0,0,0,0,1.93,2,2,0,0,0,2.08,1.75,2.6,2.6,0,0,0,1.69-.64,6.47,6.47,0,0,0,1.89-3.7,17,17,0,0,0,0-6.26c-.11-.79.12-1.66.63-1.79a9.91,9.91,0,0,1,2.32-.5,2.55,2.55,0,0,1,1.25.31,1.59,1.59,0,0,0,.33.13,1.2,1.2,0,0,0,.33.05.79.79,0,0,0,.74-.55.94.94,0,0,0-.59-1.16,4.82,4.82,0,0,0-1.65-.3,5.92,5.92,0,0,0-2.48.59c-.39.18-.8.33-1.22.51-.43-1.15-.81-2.22-1.24-3.28-.24-.61-.69-1.18-1.32-1.18h-.16a2.22,2.22,0,0,0-1.19,1,5.52,5.52,0,0,1-2,2,1.63,1.63,0,0,1-.67.22c-.3,0-.41-.26-.41-.82v-.21c0-.61-.33-1-.78-1a1.06,1.06,0,0,0-.53.16c-.6.35-1.08.88-1.64,1.29s-1.3.92-2,1.33a1,1,0,0,1-.49.16.57.57,0,0,1-.53-.36,1,1,0,0,1,.14-1.34c.53-.44,1.09-.86,1.57-1.35a36,36,0,0,0,2.89-3.11,4.22,4.22,0,0,0,1.15-3,1.1,1.1,0,0,0-1.05-1.1"/><path d="M596.91,437.2c-.91-.06-1.66-.08-2.41-.18a.76.76,0,0,1-.62-.4,1.12,1.12,0,0,1,.16-.87,1.81,1.81,0,0,1,.83-.49c.74-.26,1.48-.46,2.22-.74a.9.9,0,0,0,.42-.45,1.21,1.21,0,0,0,.08-.62c-.16-1.48-.21-1.8-1.69-1.77a3.35,3.35,0,0,0-2,.47c-.13.1-.61-.13-.74-.33s0-.61.21-.74a5.8,5.8,0,0,1,4.18-.87,2.09,2.09,0,0,1,1.7,2v2c0,.55.3.74.74.53a37.29,37.29,0,0,0,3.7-2.11,18.28,18.28,0,0,0,2-1.92.9.9,0,0,1,1.21-.16.65.65,0,0,1,.07,1.09,15.68,15.68,0,0,1-2.33,2,34.89,34.89,0,0,1-3.19,1.72c-.33.18-.36.37-.21.74.5,1.21.95,2.45,1.39,3.7.17.47.36.66.86.32a1.62,1.62,0,0,1,2.27.12c.3.23.58.48.88.7,1,.74,1.1.74,2.15,0a14.54,14.54,0,0,0,1.35-1.21A1.12,1.12,0,0,1,612,440l.07.12c.32.44.62,1.22.95,1.23a5.92,5.92,0,0,0,2-.62,5.08,5.08,0,0,0,.59-.36,1.7,1.7,0,0,1,2.38.35l0,0c.74.78,1.15.83,2.16.35a6,6,0,0,1,3.85-.68c.74.14,1.48.24,2.22.31a4.51,4.51,0,0,0,.74-.13,4.7,4.7,0,0,1,1.3,0c.26.05.68.47.64.57a1.36,1.36,0,0,1-.68.78,17.69,17.69,0,0,1-3,.52,10,10,0,0,1-1.75-.26,4.18,4.18,0,0,0-1.54,0,20.55,20.55,0,0,0-1.92.9,2.27,2.27,0,0,1-2.85-.42c-.74-.9-.88-.86-1.86-.24a3.53,3.53,0,0,1-3,.74,1.62,1.62,0,0,1-.78-.48c-.94-1.16-1.21-1.18-2.18,0-.6.74-1.11,1.6-1.69,2.38a3.06,3.06,0,0,1-4.71.35,4.69,4.69,0,0,1-.81-1.58c-.23-.62-.59-.65-1.15-.5a6.9,6.9,0,0,1-1.75.25c-.18,0-.48-.36-.52-.58a.79.79,0,0,1,.36-.64,13.52,13.52,0,0,1,1.56-.58.67.67,0,0,0,.45-.95c-.32-1.07-.63-2.15-1-3.21a.54.54,0,0,0-.13-.24c-.27-.24-.55-.47-.82-.7a4,4,0,0,0-.56.91,18.1,18.1,0,0,0-.64,2.57,14,14,0,0,0,0,2,1.25,1.25,0,0,1-.87,1.21c-.62.19-1.12,0-1.1-.7a13.64,13.64,0,0,1,.36-2.29A21,21,0,0,1,596.91,437.2Zm8.14,7.63a10.91,10.91,0,0,0,1.35-.8c.46-.36.45-.74-.09-1.1s-1.08-.78-1.62-1.17-1.33.1-1.25.53a6.42,6.42,0,0,0,.65,1.79c.16.3.56.46.95.74Z"/><path d="M566.52,434.76c-.12.63-.55,1.17-1,1.2a1.11,1.11,0,0,1-1.07-1c0-.42.62-1.2.92-1.07A5.33,5.33,0,0,1,566.52,434.76Z"/><path d="M604.55,434.4a.92.92,0,0,1,.91.93,1,1,0,0,1-.91,1c-.45,0-1.17-.67-1.14-1.06A1.18,1.18,0,0,1,604.55,434.4Z"/></g></g></svg>